<mxfile host="app.diagrams.net" modified="2024-07-08T10:28:54.807Z" agent="Mozilla/5.0 (Macintosh; Intel Mac OS X 10_15_7) AppleWebKit/537.36 (KHTML, like Gecko) Chrome/126.0.0.0 Safari/537.36" etag="e7QIL-u1iVEkH1ESNi6p" version="24.6.4" type="device">
  <diagram id="R2lEEEUBdFMjLlhIrx00" name="Page-1">
    <mxGraphModel dx="5487" dy="4567" grid="1" gridSize="10" guides="1" tooltips="1" connect="1" arrows="1" fold="1" page="1" pageScale="1" pageWidth="850" pageHeight="1100" math="0" shadow="0" extFonts="Permanent Marker^https://fonts.googleapis.com/css?family=Permanent+Marker">
      <root>
        <mxCell id="0" />
        <mxCell id="1" parent="0" />
        <mxCell id="AkOBkc0Qu3jlN49ZhF7H-6" value="tblissues" style="rounded=0;whiteSpace=wrap;html=1;" vertex="1" parent="1">
          <mxGeometry x="1570" y="572.5" width="120" height="60" as="geometry" />
        </mxCell>
        <mxCell id="AkOBkc0Qu3jlN49ZhF7H-70" value="id" style="ellipse;whiteSpace=wrap;html=1;align=center;fontStyle=4;" vertex="1" parent="1">
          <mxGeometry x="1670" y="452.5" width="100" height="40" as="geometry" />
        </mxCell>
        <mxCell id="AkOBkc0Qu3jlN49ZhF7H-71" value="UserEmail" style="ellipse;whiteSpace=wrap;html=1;align=center;fontStyle=4;" vertex="1" parent="1">
          <mxGeometry x="1530" y="452.5" width="100" height="40" as="geometry" />
        </mxCell>
        <mxCell id="AkOBkc0Qu3jlN49ZhF7H-73" value="Issues" style="ellipse;whiteSpace=wrap;html=1;align=center;" vertex="1" parent="1">
          <mxGeometry x="1390" y="632.5" width="100" height="40" as="geometry" />
        </mxCell>
        <mxCell id="AkOBkc0Qu3jlN49ZhF7H-74" value="Description" style="ellipse;whiteSpace=wrap;html=1;align=center;" vertex="1" parent="1">
          <mxGeometry x="1520" y="715" width="100" height="50" as="geometry" />
        </mxCell>
        <mxCell id="AkOBkc0Qu3jlN49ZhF7H-75" value="PostingDate" style="ellipse;whiteSpace=wrap;html=1;align=center;" vertex="1" parent="1">
          <mxGeometry x="1690" y="715" width="100" height="45" as="geometry" />
        </mxCell>
        <mxCell id="AkOBkc0Qu3jlN49ZhF7H-76" value="AdminR&lt;span style=&quot;color: rgba(0, 0, 0, 0); font-family: monospace; font-size: 0px; text-align: start; text-wrap: nowrap;&quot;&gt;%3CmxGraphModel%3E%3Croot%3E%3CmxCell%20id%3D%220%22%2F%3E%3CmxCell%20id%3D%221%22%20parent%3D%220%22%2F%3E%3CmxCell%20id%3D%222%22%20value%3D%22PostingDate%22%20style%3D%22ellipse%3BwhiteSpace%3Dwrap%3Bhtml%3D1%3Balign%3Dcenter%3B%22%20vertex%3D%221%22%20parent%3D%221%22%3E%3CmxGeometry%20x%3D%22840%22%20y%3D%22240%22%20width%3D%22100%22%20height%3D%2240%22%20as%3D%22geometry%22%2F%3E%3C%2FmxCell%3E%3C%2Froot%3E%3C%2FmxGraphModel%3E&lt;/span&gt;emark" style="ellipse;whiteSpace=wrap;html=1;align=center;" vertex="1" parent="1">
          <mxGeometry x="1410" y="532.5" width="100" height="40" as="geometry" />
        </mxCell>
        <mxCell id="AkOBkc0Qu3jlN49ZhF7H-77" value="Adminre&lt;span style=&quot;color: rgba(0, 0, 0, 0); font-family: monospace; font-size: 0px; text-align: start; text-wrap: nowrap;&quot;&gt;%3CmxGraphModel%3E%3Croot%3E%3CmxCell%20id%3D%220%22%2F%3E%3CmxCell%20id%3D%221%22%20parent%3D%220%22%2F%3E%3CmxCell%20id%3D%222%22%20value%3D%22PostingDate%22%20style%3D%22ellipse%3BwhiteSpace%3Dwrap%3Bhtml%3D1%3Balign%3Dcenter%3B%22%20vertex%3D%221%22%20parent%3D%221%22%3E%3CmxGeometry%20x%3D%22840%22%20y%3D%22240%22%20width%3D%22100%22%20height%3D%2240%22%20as%3D%22geometry%22%2F%3E%3C%2FmxCell%3E%3C%2Froot%3E%3C%2FmxGraphModel%&lt;/span&gt;markDate" style="ellipse;whiteSpace=wrap;html=1;align=center;" vertex="1" parent="1">
          <mxGeometry x="1770" y="520" width="140" height="40" as="geometry" />
        </mxCell>
        <mxCell id="AkOBkc0Qu3jlN49ZhF7H-79" style="edgeStyle=orthogonalEdgeStyle;rounded=0;orthogonalLoop=1;jettySize=auto;html=1;exitX=0.5;exitY=1;exitDx=0;exitDy=0;" edge="1" parent="1" source="AkOBkc0Qu3jlN49ZhF7H-76" target="AkOBkc0Qu3jlN49ZhF7H-76">
          <mxGeometry relative="1" as="geometry" />
        </mxCell>
        <mxCell id="AkOBkc0Qu3jlN49ZhF7H-81" value="" style="endArrow=none;html=1;rounded=0;entryX=0.5;entryY=1;entryDx=0;entryDy=0;exitX=0.5;exitY=0;exitDx=0;exitDy=0;" edge="1" parent="1" source="AkOBkc0Qu3jlN49ZhF7H-6" target="AkOBkc0Qu3jlN49ZhF7H-71">
          <mxGeometry width="50" height="50" relative="1" as="geometry">
            <mxPoint x="1520" y="682.5" as="sourcePoint" />
            <mxPoint x="1570" y="632.5" as="targetPoint" />
          </mxGeometry>
        </mxCell>
        <mxCell id="AkOBkc0Qu3jlN49ZhF7H-82" value="" style="endArrow=none;html=1;rounded=0;entryX=0.5;entryY=1;entryDx=0;entryDy=0;" edge="1" parent="1" target="AkOBkc0Qu3jlN49ZhF7H-70">
          <mxGeometry width="50" height="50" relative="1" as="geometry">
            <mxPoint x="1630" y="572.5" as="sourcePoint" />
            <mxPoint x="1590" y="502.5" as="targetPoint" />
          </mxGeometry>
        </mxCell>
        <mxCell id="AkOBkc0Qu3jlN49ZhF7H-83" value="" style="endArrow=none;html=1;rounded=0;entryX=1;entryY=0.5;entryDx=0;entryDy=0;" edge="1" parent="1" target="AkOBkc0Qu3jlN49ZhF7H-76">
          <mxGeometry width="50" height="50" relative="1" as="geometry">
            <mxPoint x="1570" y="602.5" as="sourcePoint" />
            <mxPoint x="1600" y="512.5" as="targetPoint" />
          </mxGeometry>
        </mxCell>
        <mxCell id="AkOBkc0Qu3jlN49ZhF7H-84" value="" style="endArrow=none;html=1;rounded=0;entryX=1;entryY=0.5;entryDx=0;entryDy=0;exitX=0;exitY=0.5;exitDx=0;exitDy=0;" edge="1" parent="1" source="AkOBkc0Qu3jlN49ZhF7H-6" target="AkOBkc0Qu3jlN49ZhF7H-73">
          <mxGeometry width="50" height="50" relative="1" as="geometry">
            <mxPoint x="1660" y="602.5" as="sourcePoint" />
            <mxPoint x="1610" y="522.5" as="targetPoint" />
          </mxGeometry>
        </mxCell>
        <mxCell id="AkOBkc0Qu3jlN49ZhF7H-85" value="" style="endArrow=none;html=1;rounded=0;entryX=0.5;entryY=1;entryDx=0;entryDy=0;exitX=0.5;exitY=0;exitDx=0;exitDy=0;" edge="1" parent="1" target="AkOBkc0Qu3jlN49ZhF7H-6">
          <mxGeometry width="50" height="50" relative="1" as="geometry">
            <mxPoint x="1570" y="712.5" as="sourcePoint" />
            <mxPoint x="1640" y="642.5" as="targetPoint" />
          </mxGeometry>
        </mxCell>
        <mxCell id="AkOBkc0Qu3jlN49ZhF7H-86" value="" style="endArrow=none;html=1;rounded=0;exitX=0.5;exitY=0;exitDx=0;exitDy=0;" edge="1" parent="1">
          <mxGeometry width="50" height="50" relative="1" as="geometry">
            <mxPoint x="1710" y="717.5" as="sourcePoint" />
            <mxPoint x="1630" y="632.5" as="targetPoint" />
          </mxGeometry>
        </mxCell>
        <mxCell id="AkOBkc0Qu3jlN49ZhF7H-87" value="" style="endArrow=none;html=1;rounded=0;exitX=1;exitY=0.5;exitDx=0;exitDy=0;entryX=0;entryY=0.5;entryDx=0;entryDy=0;" edge="1" parent="1" source="AkOBkc0Qu3jlN49ZhF7H-6">
          <mxGeometry width="50" height="50" relative="1" as="geometry">
            <mxPoint x="1720" y="682.5" as="sourcePoint" />
            <mxPoint x="1769.999999999985" y="542.5" as="targetPoint" />
          </mxGeometry>
        </mxCell>
        <mxCell id="AkOBkc0Qu3jlN49ZhF7H-97" value="" style="group" vertex="1" connectable="0" parent="1">
          <mxGeometry x="1380" y="-130" width="330" height="330" as="geometry" />
        </mxCell>
        <mxCell id="AkOBkc0Qu3jlN49ZhF7H-3" value="admin" style="rounded=0;whiteSpace=wrap;html=1;" vertex="1" parent="AkOBkc0Qu3jlN49ZhF7H-97">
          <mxGeometry x="183.33333333333334" y="165" width="146.66666666666669" height="70.71428571428572" as="geometry" />
        </mxCell>
        <mxCell id="AkOBkc0Qu3jlN49ZhF7H-8" value="&lt;u&gt;id&lt;/u&gt;" style="ellipse;whiteSpace=wrap;html=1;" vertex="1" parent="AkOBkc0Qu3jlN49ZhF7H-97">
          <mxGeometry x="91.67" y="50.004285714285714" width="146.66666666666669" height="47.142857142857146" as="geometry" />
        </mxCell>
        <mxCell id="AkOBkc0Qu3jlN49ZhF7H-15" value="" style="endArrow=none;html=1;rounded=0;exitX=0.5;exitY=1;exitDx=0;exitDy=0;entryX=0.5;entryY=0;entryDx=0;entryDy=0;" edge="1" parent="AkOBkc0Qu3jlN49ZhF7H-97" source="AkOBkc0Qu3jlN49ZhF7H-8" target="AkOBkc0Qu3jlN49ZhF7H-3">
          <mxGeometry width="50" height="50" relative="1" as="geometry">
            <mxPoint x="525.5555555555555" y="271.07142857142856" as="sourcePoint" />
            <mxPoint x="586.6666666666667" y="212.14285714285714" as="targetPoint" />
          </mxGeometry>
        </mxCell>
        <mxCell id="AkOBkc0Qu3jlN49ZhF7H-98" value="" style="group" vertex="1" connectable="0" parent="1">
          <mxGeometry x="290" y="220" width="356.6666666666667" height="160" as="geometry" />
        </mxCell>
        <mxCell id="AkOBkc0Qu3jlN49ZhF7H-1" value="tblpages" style="rounded=0;whiteSpace=wrap;html=1;" vertex="1" parent="AkOBkc0Qu3jlN49ZhF7H-98">
          <mxGeometry x="180" y="70" width="120" height="50" as="geometry" />
        </mxCell>
        <mxCell id="AkOBkc0Qu3jlN49ZhF7H-89" value="id" style="ellipse;whiteSpace=wrap;html=1;align=center;fontStyle=4;" vertex="1" parent="AkOBkc0Qu3jlN49ZhF7H-98">
          <mxGeometry x="130" width="100" height="40" as="geometry" />
        </mxCell>
        <mxCell id="AkOBkc0Qu3jlN49ZhF7H-91" value="detail" style="ellipse;whiteSpace=wrap;html=1;align=center;" vertex="1" parent="AkOBkc0Qu3jlN49ZhF7H-98">
          <mxGeometry x="10" y="20" width="100" height="40" as="geometry" />
        </mxCell>
        <mxCell id="AkOBkc0Qu3jlN49ZhF7H-92" value="type" style="ellipse;whiteSpace=wrap;html=1;align=center;" vertex="1" parent="AkOBkc0Qu3jlN49ZhF7H-98">
          <mxGeometry y="110" width="100" height="40" as="geometry" />
        </mxCell>
        <mxCell id="AkOBkc0Qu3jlN49ZhF7H-93" value="" style="endArrow=none;html=1;rounded=0;exitX=0.5;exitY=0;exitDx=0;exitDy=0;entryX=0.5;entryY=1;entryDx=0;entryDy=0;" edge="1" parent="AkOBkc0Qu3jlN49ZhF7H-98" source="AkOBkc0Qu3jlN49ZhF7H-1" target="AkOBkc0Qu3jlN49ZhF7H-89">
          <mxGeometry width="50" height="50" relative="1" as="geometry">
            <mxPoint x="190" y="80" as="sourcePoint" />
            <mxPoint x="240" y="30" as="targetPoint" />
          </mxGeometry>
        </mxCell>
        <mxCell id="AkOBkc0Qu3jlN49ZhF7H-95" value="" style="endArrow=none;html=1;rounded=0;exitX=0;exitY=0.5;exitDx=0;exitDy=0;entryX=0.57;entryY=0.975;entryDx=0;entryDy=0;entryPerimeter=0;" edge="1" parent="AkOBkc0Qu3jlN49ZhF7H-98" source="AkOBkc0Qu3jlN49ZhF7H-1" target="AkOBkc0Qu3jlN49ZhF7H-91">
          <mxGeometry width="50" height="50" relative="1" as="geometry">
            <mxPoint x="170" y="90" as="sourcePoint" />
            <mxPoint x="240" y="30" as="targetPoint" />
          </mxGeometry>
        </mxCell>
        <mxCell id="AkOBkc0Qu3jlN49ZhF7H-96" value="" style="endArrow=none;html=1;rounded=0;exitX=0;exitY=0.5;exitDx=0;exitDy=0;entryX=1;entryY=0.5;entryDx=0;entryDy=0;" edge="1" parent="AkOBkc0Qu3jlN49ZhF7H-98" source="AkOBkc0Qu3jlN49ZhF7H-1" target="AkOBkc0Qu3jlN49ZhF7H-92">
          <mxGeometry width="50" height="50" relative="1" as="geometry">
            <mxPoint x="190" y="80" as="sourcePoint" />
            <mxPoint x="240" y="30" as="targetPoint" />
          </mxGeometry>
        </mxCell>
        <mxCell id="AkOBkc0Qu3jlN49ZhF7H-99" value="" style="group" vertex="1" connectable="0" parent="1">
          <mxGeometry x="520" y="420" width="640" height="330" as="geometry" />
        </mxCell>
        <mxCell id="AkOBkc0Qu3jlN49ZhF7H-7" value="tblusers" style="rounded=0;whiteSpace=wrap;html=1;" vertex="1" parent="AkOBkc0Qu3jlN49ZhF7H-99">
          <mxGeometry x="250" y="150" width="120" height="60" as="geometry" />
        </mxCell>
        <mxCell id="AkOBkc0Qu3jlN49ZhF7H-13" value="id" style="ellipse;whiteSpace=wrap;html=1;" vertex="1" parent="AkOBkc0Qu3jlN49ZhF7H-99">
          <mxGeometry x="40" y="50" width="120" height="40" as="geometry" />
        </mxCell>
        <mxCell id="AkOBkc0Qu3jlN49ZhF7H-18" value="FullName" style="ellipse;whiteSpace=wrap;html=1;" vertex="1" parent="AkOBkc0Qu3jlN49ZhF7H-99">
          <mxGeometry x="310" width="120" height="50" as="geometry" />
        </mxCell>
        <mxCell id="AkOBkc0Qu3jlN49ZhF7H-20" value="EmailId" style="ellipse;whiteSpace=wrap;html=1;" vertex="1" parent="AkOBkc0Qu3jlN49ZhF7H-99">
          <mxGeometry x="70" y="195" width="120" height="45" as="geometry" />
        </mxCell>
        <mxCell id="AkOBkc0Qu3jlN49ZhF7H-21" value="Password" style="ellipse;whiteSpace=wrap;html=1;" vertex="1" parent="AkOBkc0Qu3jlN49ZhF7H-99">
          <mxGeometry x="170" y="10" width="120" height="40" as="geometry" />
        </mxCell>
        <mxCell id="AkOBkc0Qu3jlN49ZhF7H-22" value="RegDate" style="ellipse;whiteSpace=wrap;html=1;" vertex="1" parent="AkOBkc0Qu3jlN49ZhF7H-99">
          <mxGeometry x="410" y="60" width="120" height="50" as="geometry" />
        </mxCell>
        <mxCell id="AkOBkc0Qu3jlN49ZhF7H-24" value="updationDate" style="ellipse;whiteSpace=wrap;html=1;" vertex="1" parent="AkOBkc0Qu3jlN49ZhF7H-99">
          <mxGeometry x="180" y="280" width="120" height="50" as="geometry" />
        </mxCell>
        <mxCell id="AkOBkc0Qu3jlN49ZhF7H-25" value="MobileNumber" style="ellipse;shape=doubleEllipse;margin=3;whiteSpace=wrap;html=1;align=center;" vertex="1" parent="AkOBkc0Qu3jlN49ZhF7H-99">
          <mxGeometry y="120" width="130" height="50" as="geometry" />
        </mxCell>
        <mxCell id="AkOBkc0Qu3jlN49ZhF7H-26" value="" style="endArrow=none;html=1;rounded=0;exitX=0.5;exitY=1;exitDx=0;exitDy=0;entryX=0.5;entryY=0;entryDx=0;entryDy=0;" edge="1" parent="AkOBkc0Qu3jlN49ZhF7H-99" source="AkOBkc0Qu3jlN49ZhF7H-21" target="AkOBkc0Qu3jlN49ZhF7H-7">
          <mxGeometry width="50" height="50" relative="1" as="geometry">
            <mxPoint x="250" y="270" as="sourcePoint" />
            <mxPoint x="300" y="220" as="targetPoint" />
          </mxGeometry>
        </mxCell>
        <mxCell id="AkOBkc0Qu3jlN49ZhF7H-27" value="" style="endArrow=none;html=1;rounded=0;entryX=0.5;entryY=0;entryDx=0;entryDy=0;" edge="1" parent="AkOBkc0Qu3jlN49ZhF7H-99" source="AkOBkc0Qu3jlN49ZhF7H-13" target="AkOBkc0Qu3jlN49ZhF7H-7">
          <mxGeometry width="50" height="50" relative="1" as="geometry">
            <mxPoint x="250" y="270" as="sourcePoint" />
            <mxPoint x="250" y="150" as="targetPoint" />
          </mxGeometry>
        </mxCell>
        <mxCell id="AkOBkc0Qu3jlN49ZhF7H-28" value="" style="endArrow=none;html=1;rounded=0;entryX=0.5;entryY=1;entryDx=0;entryDy=0;" edge="1" parent="AkOBkc0Qu3jlN49ZhF7H-99" target="AkOBkc0Qu3jlN49ZhF7H-18">
          <mxGeometry width="50" height="50" relative="1" as="geometry">
            <mxPoint x="310" y="148" as="sourcePoint" />
            <mxPoint x="300" y="220" as="targetPoint" />
          </mxGeometry>
        </mxCell>
        <mxCell id="AkOBkc0Qu3jlN49ZhF7H-29" value="" style="endArrow=none;html=1;rounded=0;entryX=0;entryY=1;entryDx=0;entryDy=0;exitX=0.5;exitY=0;exitDx=0;exitDy=0;" edge="1" parent="AkOBkc0Qu3jlN49ZhF7H-99" source="AkOBkc0Qu3jlN49ZhF7H-7" target="AkOBkc0Qu3jlN49ZhF7H-22">
          <mxGeometry width="50" height="50" relative="1" as="geometry">
            <mxPoint x="250" y="270" as="sourcePoint" />
            <mxPoint x="300" y="220" as="targetPoint" />
          </mxGeometry>
        </mxCell>
        <mxCell id="AkOBkc0Qu3jlN49ZhF7H-30" value="" style="endArrow=none;html=1;rounded=0;entryX=0;entryY=0.5;entryDx=0;entryDy=0;exitX=1;exitY=0.5;exitDx=0;exitDy=0;" edge="1" parent="AkOBkc0Qu3jlN49ZhF7H-99" source="AkOBkc0Qu3jlN49ZhF7H-25" target="AkOBkc0Qu3jlN49ZhF7H-7">
          <mxGeometry width="50" height="50" relative="1" as="geometry">
            <mxPoint x="250" y="270" as="sourcePoint" />
            <mxPoint x="300" y="220" as="targetPoint" />
          </mxGeometry>
        </mxCell>
        <mxCell id="AkOBkc0Qu3jlN49ZhF7H-31" value="" style="endArrow=none;html=1;rounded=0;exitX=1;exitY=0.5;exitDx=0;exitDy=0;entryX=0;entryY=0.5;entryDx=0;entryDy=0;" edge="1" parent="AkOBkc0Qu3jlN49ZhF7H-99" source="AkOBkc0Qu3jlN49ZhF7H-20" target="AkOBkc0Qu3jlN49ZhF7H-7">
          <mxGeometry width="50" height="50" relative="1" as="geometry">
            <mxPoint x="250" y="270" as="sourcePoint" />
            <mxPoint x="300" y="220" as="targetPoint" />
          </mxGeometry>
        </mxCell>
        <mxCell id="AkOBkc0Qu3jlN49ZhF7H-32" value="" style="endArrow=none;html=1;rounded=0;entryX=0.5;entryY=1;entryDx=0;entryDy=0;" edge="1" parent="AkOBkc0Qu3jlN49ZhF7H-99" target="AkOBkc0Qu3jlN49ZhF7H-7">
          <mxGeometry width="50" height="50" relative="1" as="geometry">
            <mxPoint x="260" y="280" as="sourcePoint" />
            <mxPoint x="300" y="220" as="targetPoint" />
          </mxGeometry>
        </mxCell>
        <mxCell id="AkOBkc0Qu3jlN49ZhF7H-147" value="1" style="text;html=1;align=center;verticalAlign=middle;whiteSpace=wrap;rounded=0;" vertex="1" parent="AkOBkc0Qu3jlN49ZhF7H-99">
          <mxGeometry x="520" y="280" width="60" height="30" as="geometry" />
        </mxCell>
        <mxCell id="AkOBkc0Qu3jlN49ZhF7H-100" value="" style="group" vertex="1" connectable="0" parent="1">
          <mxGeometry x="605" y="-97.7" width="560" height="360" as="geometry" />
        </mxCell>
        <mxCell id="AkOBkc0Qu3jlN49ZhF7H-4" value="tblenquiry" style="rounded=0;whiteSpace=wrap;html=1;" vertex="1" parent="AkOBkc0Qu3jlN49ZhF7H-100">
          <mxGeometry x="228.14814814814812" y="124.61538461538461" width="124.44444444444444" height="83.07692307692308" as="geometry" />
        </mxCell>
        <mxCell id="AkOBkc0Qu3jlN49ZhF7H-33" value="id" style="ellipse;whiteSpace=wrap;html=1;align=center;fontStyle=4;" vertex="1" parent="AkOBkc0Qu3jlN49ZhF7H-100">
          <mxGeometry x="41.48148148148148" y="55.38461538461539" width="103.7037037037037" height="55.38461538461539" as="geometry" />
        </mxCell>
        <mxCell id="AkOBkc0Qu3jlN49ZhF7H-34" value="Subject" style="ellipse;whiteSpace=wrap;html=1;align=center;" vertex="1" parent="AkOBkc0Qu3jlN49ZhF7H-100">
          <mxGeometry x="72.5925925925926" y="249.23076923076923" width="103.7037037037037" height="55.38461538461539" as="geometry" />
        </mxCell>
        <mxCell id="AkOBkc0Qu3jlN49ZhF7H-35" value="FullName" style="ellipse;whiteSpace=wrap;html=1;" vertex="1" parent="AkOBkc0Qu3jlN49ZhF7H-100">
          <mxGeometry x="155.55555555555554" width="124.44444444444444" height="69.23076923076923" as="geometry" />
        </mxCell>
        <mxCell id="AkOBkc0Qu3jlN49ZhF7H-37" value="MobileNumber" style="ellipse;shape=doubleEllipse;margin=3;whiteSpace=wrap;html=1;align=center;" vertex="1" parent="AkOBkc0Qu3jlN49ZhF7H-100">
          <mxGeometry x="409.99518518518516" y="-13.843076923076922" width="134.8148148148148" height="69.23076923076923" as="geometry" />
        </mxCell>
        <mxCell id="AkOBkc0Qu3jlN49ZhF7H-38" value="Description" style="ellipse;whiteSpace=wrap;html=1;align=center;" vertex="1" parent="AkOBkc0Qu3jlN49ZhF7H-100">
          <mxGeometry y="138.46153846153845" width="103.7037037037037" height="69.23076923076923" as="geometry" />
        </mxCell>
        <mxCell id="AkOBkc0Qu3jlN49ZhF7H-39" value="PostingDate" style="ellipse;whiteSpace=wrap;html=1;align=center;" vertex="1" parent="AkOBkc0Qu3jlN49ZhF7H-100">
          <mxGeometry x="197.03703703703704" y="304.6153846153846" width="103.7037037037037" height="55.38461538461539" as="geometry" />
        </mxCell>
        <mxCell id="AkOBkc0Qu3jlN49ZhF7H-40" value="Status" style="ellipse;whiteSpace=wrap;html=1;align=center;" vertex="1" parent="AkOBkc0Qu3jlN49ZhF7H-100">
          <mxGeometry x="342.22222222222223" y="290.7692307692308" width="103.7037037037037" height="55.38461538461539" as="geometry" />
        </mxCell>
        <mxCell id="AkOBkc0Qu3jlN49ZhF7H-42" value="" style="endArrow=none;html=1;rounded=0;exitX=1;exitY=0.5;exitDx=0;exitDy=0;entryX=0;entryY=0.5;entryDx=0;entryDy=0;" edge="1" parent="AkOBkc0Qu3jlN49ZhF7H-100" source="AkOBkc0Qu3jlN49ZhF7H-38" target="AkOBkc0Qu3jlN49ZhF7H-4">
          <mxGeometry width="50" height="50" relative="1" as="geometry">
            <mxPoint x="72.5925925925926" y="235.3846153846154" as="sourcePoint" />
            <mxPoint x="124.44444444444444" y="166.15384615384616" as="targetPoint" />
          </mxGeometry>
        </mxCell>
        <mxCell id="AkOBkc0Qu3jlN49ZhF7H-43" value="" style="endArrow=none;html=1;rounded=0;entryX=0.67;entryY=1;entryDx=0;entryDy=0;entryPerimeter=0;exitX=0;exitY=0.5;exitDx=0;exitDy=0;" edge="1" parent="AkOBkc0Qu3jlN49ZhF7H-100" source="AkOBkc0Qu3jlN49ZhF7H-4" target="AkOBkc0Qu3jlN49ZhF7H-33">
          <mxGeometry width="50" height="50" relative="1" as="geometry">
            <mxPoint x="72.5925925925926" y="235.3846153846154" as="sourcePoint" />
            <mxPoint x="124.44444444444444" y="166.15384615384616" as="targetPoint" />
          </mxGeometry>
        </mxCell>
        <mxCell id="AkOBkc0Qu3jlN49ZhF7H-44" value="" style="endArrow=none;html=1;rounded=0;entryX=0.5;entryY=1;entryDx=0;entryDy=0;exitX=0.5;exitY=0;exitDx=0;exitDy=0;" edge="1" parent="AkOBkc0Qu3jlN49ZhF7H-100" source="AkOBkc0Qu3jlN49ZhF7H-4" target="AkOBkc0Qu3jlN49ZhF7H-35">
          <mxGeometry width="50" height="50" relative="1" as="geometry">
            <mxPoint x="72.5925925925926" y="235.3846153846154" as="sourcePoint" />
            <mxPoint x="124.44444444444444" y="166.15384615384616" as="targetPoint" />
          </mxGeometry>
        </mxCell>
        <mxCell id="AkOBkc0Qu3jlN49ZhF7H-46" value="" style="endArrow=none;html=1;rounded=0;entryX=0;entryY=1;entryDx=0;entryDy=0;exitX=0.5;exitY=0;exitDx=0;exitDy=0;" edge="1" parent="AkOBkc0Qu3jlN49ZhF7H-100" source="AkOBkc0Qu3jlN49ZhF7H-4" target="AkOBkc0Qu3jlN49ZhF7H-37">
          <mxGeometry width="50" height="50" relative="1" as="geometry">
            <mxPoint x="352.59259259259255" y="166.15384615384616" as="sourcePoint" />
            <mxPoint x="124.44444444444444" y="166.15384615384616" as="targetPoint" />
          </mxGeometry>
        </mxCell>
        <mxCell id="AkOBkc0Qu3jlN49ZhF7H-47" value="" style="endArrow=none;html=1;rounded=0;exitX=1;exitY=0;exitDx=0;exitDy=0;entryX=0;entryY=0.5;entryDx=0;entryDy=0;" edge="1" parent="AkOBkc0Qu3jlN49ZhF7H-100" source="AkOBkc0Qu3jlN49ZhF7H-34" target="AkOBkc0Qu3jlN49ZhF7H-4">
          <mxGeometry width="50" height="50" relative="1" as="geometry">
            <mxPoint x="72.5925925925926" y="235.3846153846154" as="sourcePoint" />
            <mxPoint x="124.44444444444444" y="166.15384615384616" as="targetPoint" />
          </mxGeometry>
        </mxCell>
        <mxCell id="AkOBkc0Qu3jlN49ZhF7H-48" value="" style="endArrow=none;html=1;rounded=0;entryX=0.5;entryY=1;entryDx=0;entryDy=0;" edge="1" parent="AkOBkc0Qu3jlN49ZhF7H-100" source="AkOBkc0Qu3jlN49ZhF7H-39" target="AkOBkc0Qu3jlN49ZhF7H-4">
          <mxGeometry width="50" height="50" relative="1" as="geometry">
            <mxPoint x="72.5925925925926" y="235.3846153846154" as="sourcePoint" />
            <mxPoint x="124.44444444444444" y="166.15384615384616" as="targetPoint" />
          </mxGeometry>
        </mxCell>
        <mxCell id="AkOBkc0Qu3jlN49ZhF7H-49" value="" style="endArrow=none;html=1;rounded=0;exitX=0.5;exitY=0;exitDx=0;exitDy=0;" edge="1" parent="AkOBkc0Qu3jlN49ZhF7H-100" source="AkOBkc0Qu3jlN49ZhF7H-40">
          <mxGeometry width="50" height="50" relative="1" as="geometry">
            <mxPoint x="72.5925925925926" y="235.3846153846154" as="sourcePoint" />
            <mxPoint x="290.3703703703704" y="207.69230769230768" as="targetPoint" />
          </mxGeometry>
        </mxCell>
        <mxCell id="AkOBkc0Qu3jlN49ZhF7H-101" value="" style="group" vertex="1" connectable="0" parent="1">
          <mxGeometry x="1010" y="790" width="690" height="450" as="geometry" />
        </mxCell>
        <mxCell id="AkOBkc0Qu3jlN49ZhF7H-5" value="tblbooking" style="rounded=0;whiteSpace=wrap;html=1;" vertex="1" parent="AkOBkc0Qu3jlN49ZhF7H-101">
          <mxGeometry x="311.1764705882353" y="194.59459459459458" width="162.3529411764706" height="72.97297297297297" as="geometry" />
        </mxCell>
        <mxCell id="AkOBkc0Qu3jlN49ZhF7H-50" value="FromDate" style="ellipse;whiteSpace=wrap;html=1;align=center;" vertex="1" parent="AkOBkc0Qu3jlN49ZhF7H-101">
          <mxGeometry y="218.92027027027024" width="135.29411764705884" height="48.648648648648646" as="geometry" />
        </mxCell>
        <mxCell id="AkOBkc0Qu3jlN49ZhF7H-51" value="ToDate" style="ellipse;whiteSpace=wrap;html=1;align=center;" vertex="1" parent="AkOBkc0Qu3jlN49ZhF7H-101">
          <mxGeometry y="304.04972972972973" width="135.29411764705884" height="48.648648648648646" as="geometry" />
        </mxCell>
        <mxCell id="AkOBkc0Qu3jlN49ZhF7H-52" value="Comment&lt;span style=&quot;color: rgba(0, 0, 0, 0); font-family: monospace; font-size: 0px; text-align: start; text-wrap: nowrap;&quot;&gt;%3CmxGraphModel%3E%3Croot%3E%3CmxCell%20id%3D%220%22%2F%3E%3CmxCell%20id%3D%221%22%20parent%3D%220%22%2F%3E%3CmxCell%20id%3D%222%22%20value%3D%22MobileNumber%22%20style%3D%22ellipse%3Bshape%3DdoubleEllipse%3Bmargin%3D3%3BwhiteSpace%3Dwrap%3Bhtml%3D1%3Balign%3Dcenter%3B%22%20vertex%3D%221%22%20parent%3D%221%22%3E%3CmxGeometry%20x%3D%22-120%22%20y%3D%22130%22%20width%3D%22130%22%20height%3D%2250%22%20as%3D%22geometry%22%2F%3E%3C%2FmxCell%3E%3C%2Froot%3E%3C%2FmxGraphModel%3E&lt;/span&gt;" style="ellipse;whiteSpace=wrap;html=1;align=center;" vertex="1" parent="AkOBkc0Qu3jlN49ZhF7H-101">
          <mxGeometry x="81.17705882352942" y="370.0048648648649" width="135.29411764705884" height="48.648648648648646" as="geometry" />
        </mxCell>
        <mxCell id="AkOBkc0Qu3jlN49ZhF7H-53" value="RegDate&lt;span style=&quot;color: rgba(0, 0, 0, 0); font-family: monospace; font-size: 0px; text-align: start; text-wrap: nowrap;&quot;&gt;%3CmxGraphModel%3E%3Croot%3E%3CmxCell%20id%3D%220%22%2F%3E%3CmxCell%20id%3D%221%22%20parent%3D%220%22%2F%3E%3CmxCell%20id%3D%222%22%20value%3D%22Comment%26lt%3Bspan%20style%3D%26quot%3Bcolor%3A%20rgba(0%2C%200%2C%200%2C%200)%3B%20font-family%3A%20monospace%3B%20font-size%3A%200px%3B%20text-align%3A%20start%3B%20text-wrap%3A%20nowrap%3B%26quot%3B%26gt%3B%253CmxGraphModel%253E%253Croot%253E%253CmxCell%2520id%253D%25220%2522%252F%253E%253CmxCell%2520id%253D%25221%2522%2520parent%253D%25220%2522%252F%253E%253CmxCell%2520id%253D%25222%2522%2520value%253D%2522MobileNumber%2522%2520style%253D%2522ellipse%253Bshape%253DdoubleEllipse%253Bmargin%253D3%253BwhiteSpace%253Dwrap%253Bhtml%253D1%253Balign%253Dcenter%253B%2522%2520vertex%253D%25221%2522%2520parent%253D%25221%2522%253E%253CmxGeometry%2520x%253D%2522-120%2522%2520y%253D%2522130%2522%2520width%253D%2522130%2522%2520height%253D%252250%2522%2520as%253D%2522geometry%2522%252F%253E%253C%252FmxCell%253E%253C%252Froot%253E%253C%252FmxGraphModel%253E%26lt%3B%2Fspan%26gt%3B%22%20style%3D%22ellipse%3BwhiteSpace%3Dwrap%3Bhtml%3D1%3Balign%3Dcenter%3B%22%20vertex%3D%221%22%20parent%3D%221%22%3E%3CmxGeometry%20x%3D%22820%22%20y%3D%22640%22%20width%3D%22100%22%20height%3D%2240%22%20as%3D%22geometry%22%2F%3E%3C%2FmxCell%3E%3C%2Froot%3E%3C%2FmxGraphModel%3E&lt;/span&gt;" style="ellipse;whiteSpace=wrap;html=1;align=center;" vertex="1" parent="AkOBkc0Qu3jlN49ZhF7H-101">
          <mxGeometry x="216.47058823529414" y="401.35135135135135" width="135.29411764705884" height="48.648648648648646" as="geometry" />
        </mxCell>
        <mxCell id="AkOBkc0Qu3jlN49ZhF7H-54" value="CancelledBy" style="ellipse;whiteSpace=wrap;html=1;align=center;" vertex="1" parent="AkOBkc0Qu3jlN49ZhF7H-101">
          <mxGeometry x="405.8823529411765" y="401.35135135135135" width="135.29411764705884" height="48.648648648648646" as="geometry" />
        </mxCell>
        <mxCell id="AkOBkc0Qu3jlN49ZhF7H-55" value="updationDate" style="ellipse;whiteSpace=wrap;html=1;" vertex="1" parent="AkOBkc0Qu3jlN49ZhF7H-101">
          <mxGeometry x="216.47058823529414" width="162.3529411764706" height="60.810810810810814" as="geometry" />
        </mxCell>
        <mxCell id="AkOBkc0Qu3jlN49ZhF7H-56" value="Status" style="ellipse;whiteSpace=wrap;html=1;align=center;" vertex="1" parent="AkOBkc0Qu3jlN49ZhF7H-101">
          <mxGeometry x="554.7058823529412" y="352.7027027027027" width="135.29411764705884" height="48.648648648648646" as="geometry" />
        </mxCell>
        <mxCell id="AkOBkc0Qu3jlN49ZhF7H-57" value="UserEmail" style="ellipse;whiteSpace=wrap;html=1;align=center;fontStyle=4;" vertex="1" parent="AkOBkc0Qu3jlN49ZhF7H-101">
          <mxGeometry x="135.29411764705884" y="72.97297297297297" width="135.29411764705884" height="48.648648648648646" as="geometry" />
        </mxCell>
        <mxCell id="AkOBkc0Qu3jlN49ZhF7H-58" value="PackageId" style="ellipse;whiteSpace=wrap;html=1;align=center;fontStyle=4;" vertex="1" parent="AkOBkc0Qu3jlN49ZhF7H-101">
          <mxGeometry x="365.29411764705884" y="72.97297297297297" width="135.29411764705884" height="48.648648648648646" as="geometry" />
        </mxCell>
        <mxCell id="AkOBkc0Qu3jlN49ZhF7H-59" value="BookingId" style="ellipse;whiteSpace=wrap;html=1;align=center;fontStyle=4;" vertex="1" parent="AkOBkc0Qu3jlN49ZhF7H-101">
          <mxGeometry x="514.1176470588235" y="121.62162162162163" width="135.29411764705884" height="48.648648648648646" as="geometry" />
        </mxCell>
        <mxCell id="AkOBkc0Qu3jlN49ZhF7H-60" value="" style="endArrow=none;html=1;rounded=0;exitX=0.5;exitY=0;exitDx=0;exitDy=0;entryX=0.5;entryY=1;entryDx=0;entryDy=0;" edge="1" parent="AkOBkc0Qu3jlN49ZhF7H-101" source="AkOBkc0Qu3jlN49ZhF7H-53" target="AkOBkc0Qu3jlN49ZhF7H-5">
          <mxGeometry width="50" height="50" relative="1" as="geometry">
            <mxPoint x="473.5294117647059" y="243.24324324324326" as="sourcePoint" />
            <mxPoint x="541.1764705882354" y="182.43243243243245" as="targetPoint" />
          </mxGeometry>
        </mxCell>
        <mxCell id="AkOBkc0Qu3jlN49ZhF7H-61" value="" style="endArrow=none;html=1;rounded=0;exitX=0.5;exitY=0;exitDx=0;exitDy=0;entryX=0.5;entryY=1;entryDx=0;entryDy=0;" edge="1" parent="AkOBkc0Qu3jlN49ZhF7H-101" source="AkOBkc0Qu3jlN49ZhF7H-54" target="AkOBkc0Qu3jlN49ZhF7H-5">
          <mxGeometry width="50" height="50" relative="1" as="geometry">
            <mxPoint x="297.64705882352945" y="413.5135135135135" as="sourcePoint" />
            <mxPoint x="405.8823529411765" y="279.72972972972974" as="targetPoint" />
          </mxGeometry>
        </mxCell>
        <mxCell id="AkOBkc0Qu3jlN49ZhF7H-62" value="" style="endArrow=none;html=1;rounded=0;exitX=0;exitY=0;exitDx=0;exitDy=0;entryX=0.5;entryY=1;entryDx=0;entryDy=0;" edge="1" parent="AkOBkc0Qu3jlN49ZhF7H-101" source="AkOBkc0Qu3jlN49ZhF7H-56" target="AkOBkc0Qu3jlN49ZhF7H-5">
          <mxGeometry width="50" height="50" relative="1" as="geometry">
            <mxPoint x="487.05882352941177" y="413.5135135135135" as="sourcePoint" />
            <mxPoint x="405.8823529411765" y="279.72972972972974" as="targetPoint" />
          </mxGeometry>
        </mxCell>
        <mxCell id="AkOBkc0Qu3jlN49ZhF7H-63" value="" style="endArrow=none;html=1;rounded=0;exitX=1;exitY=0;exitDx=0;exitDy=0;entryX=0;entryY=0.5;entryDx=0;entryDy=0;" edge="1" parent="AkOBkc0Qu3jlN49ZhF7H-101" source="AkOBkc0Qu3jlN49ZhF7H-52" target="AkOBkc0Qu3jlN49ZhF7H-5">
          <mxGeometry width="50" height="50" relative="1" as="geometry">
            <mxPoint x="297.64705882352945" y="413.5135135135135" as="sourcePoint" />
            <mxPoint x="405.8823529411765" y="279.72972972972974" as="targetPoint" />
          </mxGeometry>
        </mxCell>
        <mxCell id="AkOBkc0Qu3jlN49ZhF7H-64" value="" style="endArrow=none;html=1;rounded=0;exitX=1;exitY=0.5;exitDx=0;exitDy=0;" edge="1" parent="AkOBkc0Qu3jlN49ZhF7H-101" source="AkOBkc0Qu3jlN49ZhF7H-51">
          <mxGeometry width="50" height="50" relative="1" as="geometry">
            <mxPoint x="311.1764705882353" y="425.6756756756756" as="sourcePoint" />
            <mxPoint x="311.1764705882353" y="231.08108108108107" as="targetPoint" />
          </mxGeometry>
        </mxCell>
        <mxCell id="AkOBkc0Qu3jlN49ZhF7H-65" value="" style="endArrow=none;html=1;rounded=0;exitX=1;exitY=0.5;exitDx=0;exitDy=0;entryX=0;entryY=0.5;entryDx=0;entryDy=0;" edge="1" parent="AkOBkc0Qu3jlN49ZhF7H-101" source="AkOBkc0Qu3jlN49ZhF7H-50" target="AkOBkc0Qu3jlN49ZhF7H-5">
          <mxGeometry width="50" height="50" relative="1" as="geometry">
            <mxPoint x="324.7058823529412" y="437.8378378378378" as="sourcePoint" />
            <mxPoint x="432.9411764705883" y="304.05405405405406" as="targetPoint" />
          </mxGeometry>
        </mxCell>
        <mxCell id="AkOBkc0Qu3jlN49ZhF7H-66" value="" style="endArrow=none;html=1;rounded=0;exitX=0.5;exitY=1;exitDx=0;exitDy=0;" edge="1" parent="AkOBkc0Qu3jlN49ZhF7H-101" source="AkOBkc0Qu3jlN49ZhF7H-57">
          <mxGeometry width="50" height="50" relative="1" as="geometry">
            <mxPoint x="338.2352941176471" y="450" as="sourcePoint" />
            <mxPoint x="311.1764705882353" y="231.08108108108107" as="targetPoint" />
          </mxGeometry>
        </mxCell>
        <mxCell id="AkOBkc0Qu3jlN49ZhF7H-67" value="" style="endArrow=none;html=1;rounded=0;exitX=0.5;exitY=0;exitDx=0;exitDy=0;entryX=0.5;entryY=1;entryDx=0;entryDy=0;" edge="1" parent="AkOBkc0Qu3jlN49ZhF7H-101" source="AkOBkc0Qu3jlN49ZhF7H-5" target="AkOBkc0Qu3jlN49ZhF7H-58">
          <mxGeometry width="50" height="50" relative="1" as="geometry">
            <mxPoint x="473.5294117647059" y="243.24324324324326" as="sourcePoint" />
            <mxPoint x="541.1764705882354" y="182.43243243243245" as="targetPoint" />
          </mxGeometry>
        </mxCell>
        <mxCell id="AkOBkc0Qu3jlN49ZhF7H-68" value="" style="endArrow=none;html=1;rounded=0;exitX=0.5;exitY=0;exitDx=0;exitDy=0;entryX=0;entryY=0.5;entryDx=0;entryDy=0;" edge="1" parent="AkOBkc0Qu3jlN49ZhF7H-101" source="AkOBkc0Qu3jlN49ZhF7H-5" target="AkOBkc0Qu3jlN49ZhF7H-59">
          <mxGeometry width="50" height="50" relative="1" as="geometry">
            <mxPoint x="473.5294117647059" y="243.24324324324326" as="sourcePoint" />
            <mxPoint x="541.1764705882354" y="182.43243243243245" as="targetPoint" />
          </mxGeometry>
        </mxCell>
        <mxCell id="AkOBkc0Qu3jlN49ZhF7H-69" value="" style="endArrow=none;html=1;rounded=0;exitX=0.5;exitY=0;exitDx=0;exitDy=0;entryX=0.5;entryY=1;entryDx=0;entryDy=0;" edge="1" parent="AkOBkc0Qu3jlN49ZhF7H-101" source="AkOBkc0Qu3jlN49ZhF7H-5" target="AkOBkc0Qu3jlN49ZhF7H-55">
          <mxGeometry width="50" height="50" relative="1" as="geometry">
            <mxPoint x="473.5294117647059" y="243.24324324324326" as="sourcePoint" />
            <mxPoint x="541.1764705882354" y="182.43243243243245" as="targetPoint" />
          </mxGeometry>
        </mxCell>
        <mxCell id="AkOBkc0Qu3jlN49ZhF7H-149" value="N" style="text;html=1;align=center;verticalAlign=middle;whiteSpace=wrap;rounded=0;" vertex="1" parent="AkOBkc0Qu3jlN49ZhF7H-101">
          <mxGeometry x="50" y="30" width="40" height="30" as="geometry" />
        </mxCell>
        <mxCell id="AkOBkc0Qu3jlN49ZhF7H-172" value="1" style="text;html=1;align=center;verticalAlign=middle;whiteSpace=wrap;rounded=0;" vertex="1" parent="AkOBkc0Qu3jlN49ZhF7H-101">
          <mxGeometry x="610" y="194.59000000000003" width="60" height="30" as="geometry" />
        </mxCell>
        <mxCell id="AkOBkc0Qu3jlN49ZhF7H-125" value="" style="group" vertex="1" connectable="0" parent="1">
          <mxGeometry x="1870" y="820" width="690" height="480" as="geometry" />
        </mxCell>
        <mxCell id="AkOBkc0Qu3jlN49ZhF7H-2" value="tbltourpackages" style="rounded=0;whiteSpace=wrap;html=1;" vertex="1" parent="AkOBkc0Qu3jlN49ZhF7H-125">
          <mxGeometry x="285.7141444277778" y="148.9655172413793" width="131.86806665897436" height="99.3103448275862" as="geometry" />
        </mxCell>
        <mxCell id="AkOBkc0Qu3jlN49ZhF7H-104" value="PackageName" style="ellipse;whiteSpace=wrap;html=1;align=center;" vertex="1" parent="AkOBkc0Qu3jlN49ZhF7H-125">
          <mxGeometry x="-20" y="263.79" width="180" height="66.21" as="geometry" />
        </mxCell>
        <mxCell id="AkOBkc0Qu3jlN49ZhF7H-105" value="PackageType" style="ellipse;whiteSpace=wrap;html=1;align=center;" vertex="1" parent="AkOBkc0Qu3jlN49ZhF7H-125">
          <mxGeometry x="556.78" y="165.52" width="133.22" height="66.21" as="geometry" />
        </mxCell>
        <mxCell id="AkOBkc0Qu3jlN49ZhF7H-110" value="PackageImage" style="ellipse;whiteSpace=wrap;html=1;align=center;" vertex="1" parent="AkOBkc0Qu3jlN49ZhF7H-125">
          <mxGeometry x="219.78" y="413.79" width="153.85" height="66.21" as="geometry" />
        </mxCell>
        <mxCell id="AkOBkc0Qu3jlN49ZhF7H-112" value="Creationdate" style="ellipse;whiteSpace=wrap;html=1;align=center;" vertex="1" parent="AkOBkc0Qu3jlN49ZhF7H-125">
          <mxGeometry x="472.53" y="60" width="167.47" height="55.87" as="geometry" />
        </mxCell>
        <mxCell id="AkOBkc0Qu3jlN49ZhF7H-113" value="updationDate" style="ellipse;whiteSpace=wrap;html=1;" vertex="1" parent="AkOBkc0Qu3jlN49ZhF7H-125">
          <mxGeometry x="505.49" y="256.55" width="161.17" height="73.45" as="geometry" />
        </mxCell>
        <mxCell id="AkOBkc0Qu3jlN49ZhF7H-114" value="Duration" style="ellipse;whiteSpace=wrap;html=1;align=center;" vertex="1" parent="AkOBkc0Qu3jlN49ZhF7H-125">
          <mxGeometry x="428.57" y="413.79" width="151.43" height="56.21" as="geometry" />
        </mxCell>
        <mxCell id="AkOBkc0Qu3jlN49ZhF7H-116" value="" style="endArrow=none;html=1;rounded=0;exitX=0.5;exitY=1;exitDx=0;exitDy=0;" edge="1" parent="AkOBkc0Qu3jlN49ZhF7H-125" source="AkOBkc0Qu3jlN49ZhF7H-108">
          <mxGeometry width="50" height="50" relative="1" as="geometry">
            <mxPoint x="164.83508332371795" y="167.17241379310346" as="sourcePoint" />
            <mxPoint x="285.7141444277778" y="196.9655172413793" as="targetPoint" />
          </mxGeometry>
        </mxCell>
        <mxCell id="AkOBkc0Qu3jlN49ZhF7H-117" value="" style="endArrow=none;html=1;rounded=0;exitX=1;exitY=0;exitDx=0;exitDy=0;entryX=0;entryY=0.5;entryDx=0;entryDy=0;" edge="1" parent="AkOBkc0Qu3jlN49ZhF7H-125" source="AkOBkc0Qu3jlN49ZhF7H-104" target="AkOBkc0Qu3jlN49ZhF7H-2">
          <mxGeometry width="50" height="50" relative="1" as="geometry">
            <mxPoint x="131.86806665897436" y="264.82758620689657" as="sourcePoint" />
            <mxPoint x="307.6921555376069" y="231.72413793103445" as="targetPoint" />
          </mxGeometry>
        </mxCell>
        <mxCell id="AkOBkc0Qu3jlN49ZhF7H-120" value="" style="endArrow=none;html=1;rounded=0;entryX=0.5;entryY=1;entryDx=0;entryDy=0;exitX=1;exitY=0.5;exitDx=0;exitDy=0;" edge="1" parent="AkOBkc0Qu3jlN49ZhF7H-125" source="AkOBkc0Qu3jlN49ZhF7H-2" target="AkOBkc0Qu3jlN49ZhF7H-112">
          <mxGeometry width="50" height="50" relative="1" as="geometry">
            <mxPoint x="318.6811610925214" y="364.13793103448273" as="sourcePoint" />
            <mxPoint x="373.6261888670941" y="281.37931034482756" as="targetPoint" />
          </mxGeometry>
        </mxCell>
        <mxCell id="AkOBkc0Qu3jlN49ZhF7H-121" value="" style="endArrow=none;html=1;rounded=0;exitX=0;exitY=0.5;exitDx=0;exitDy=0;entryX=1;entryY=0.5;entryDx=0;entryDy=0;" edge="1" parent="AkOBkc0Qu3jlN49ZhF7H-125" source="AkOBkc0Qu3jlN49ZhF7H-105" target="AkOBkc0Qu3jlN49ZhF7H-2">
          <mxGeometry width="50" height="50" relative="1" as="geometry">
            <mxPoint x="164.83508332371795" y="314.48275862068965" as="sourcePoint" />
            <mxPoint x="340.6591722023505" y="281.37931034482756" as="targetPoint" />
          </mxGeometry>
        </mxCell>
        <mxCell id="AkOBkc0Qu3jlN49ZhF7H-122" value="" style="endArrow=none;html=1;rounded=0;exitX=1;exitY=0.5;exitDx=0;exitDy=0;entryX=0;entryY=0.5;entryDx=0;entryDy=0;" edge="1" parent="AkOBkc0Qu3jlN49ZhF7H-125" source="AkOBkc0Qu3jlN49ZhF7H-2" target="AkOBkc0Qu3jlN49ZhF7H-113">
          <mxGeometry width="50" height="50" relative="1" as="geometry">
            <mxPoint x="175.8240888786325" y="331.03448275862064" as="sourcePoint" />
            <mxPoint x="351.648177757265" y="297.9310344827586" as="targetPoint" />
          </mxGeometry>
        </mxCell>
        <mxCell id="AkOBkc0Qu3jlN49ZhF7H-123" value="" style="endArrow=none;html=1;rounded=0;exitX=0.5;exitY=0;exitDx=0;exitDy=0;entryX=0.5;entryY=1;entryDx=0;entryDy=0;" edge="1" parent="AkOBkc0Qu3jlN49ZhF7H-125" source="AkOBkc0Qu3jlN49ZhF7H-110" target="AkOBkc0Qu3jlN49ZhF7H-2">
          <mxGeometry width="50" height="50" relative="1" as="geometry">
            <mxPoint x="186.81309443354704" y="347.58620689655174" as="sourcePoint" />
            <mxPoint x="362.6371833121795" y="314.48275862068965" as="targetPoint" />
          </mxGeometry>
        </mxCell>
        <mxCell id="AkOBkc0Qu3jlN49ZhF7H-124" value="" style="endArrow=none;html=1;rounded=0;exitX=0.5;exitY=0;exitDx=0;exitDy=0;" edge="1" parent="AkOBkc0Qu3jlN49ZhF7H-125" source="AkOBkc0Qu3jlN49ZhF7H-114">
          <mxGeometry width="50" height="50" relative="1" as="geometry">
            <mxPoint x="197.80209998846155" y="364.13793103448273" as="sourcePoint" />
            <mxPoint x="351.648177757265" y="248.27586206896552" as="targetPoint" />
          </mxGeometry>
        </mxCell>
        <mxCell id="AkOBkc0Qu3jlN49ZhF7H-130" value="UserBookings" style="shape=rhombus;perimeter=rhombusPerimeter;whiteSpace=wrap;html=1;align=center;" vertex="1" parent="1">
          <mxGeometry x="980" y="740" width="150" height="70" as="geometry" />
        </mxCell>
        <mxCell id="AkOBkc0Qu3jlN49ZhF7H-138" value="" style="endArrow=none;html=1;rounded=0;exitX=1;exitY=0.5;exitDx=0;exitDy=0;entryX=0.5;entryY=0;entryDx=0;entryDy=0;" edge="1" parent="1" source="AkOBkc0Qu3jlN49ZhF7H-7" target="AkOBkc0Qu3jlN49ZhF7H-130">
          <mxGeometry width="50" height="50" relative="1" as="geometry">
            <mxPoint x="1160" y="820" as="sourcePoint" />
            <mxPoint x="1060" y="740" as="targetPoint" />
            <Array as="points">
              <mxPoint x="1055" y="600" />
            </Array>
          </mxGeometry>
        </mxCell>
        <mxCell id="AkOBkc0Qu3jlN49ZhF7H-141" value="" style="shape=link;html=1;rounded=0;exitX=0.5;exitY=1;exitDx=0;exitDy=0;entryX=0;entryY=0.5;entryDx=0;entryDy=0;" edge="1" parent="1" source="AkOBkc0Qu3jlN49ZhF7H-130" target="AkOBkc0Qu3jlN49ZhF7H-5">
          <mxGeometry relative="1" as="geometry">
            <mxPoint x="997.65" y="869.91" as="sourcePoint" />
            <mxPoint x="1290" y="1063.692307692308" as="targetPoint" />
            <Array as="points">
              <mxPoint x="1055" y="980" />
            </Array>
          </mxGeometry>
        </mxCell>
        <mxCell id="AkOBkc0Qu3jlN49ZhF7H-150" value="has" style="shape=rhombus;perimeter=rhombusPerimeter;whiteSpace=wrap;html=1;align=center;" vertex="1" parent="1">
          <mxGeometry x="1180" y="570" width="120" height="60" as="geometry" />
        </mxCell>
        <mxCell id="AkOBkc0Qu3jlN49ZhF7H-153" value="" style="endArrow=none;html=1;rounded=0;entryX=0;entryY=0.5;entryDx=0;entryDy=0;exitX=1;exitY=0.5;exitDx=0;exitDy=0;" edge="1" parent="1" source="AkOBkc0Qu3jlN49ZhF7H-7" target="AkOBkc0Qu3jlN49ZhF7H-150">
          <mxGeometry width="50" height="50" relative="1" as="geometry">
            <mxPoint x="1060" y="600" as="sourcePoint" />
            <mxPoint x="1190" y="600" as="targetPoint" />
          </mxGeometry>
        </mxCell>
        <mxCell id="AkOBkc0Qu3jlN49ZhF7H-155" value="" style="endArrow=none;html=1;rounded=0;exitX=1;exitY=0.5;exitDx=0;exitDy=0;entryX=0;entryY=0.5;entryDx=0;entryDy=0;" edge="1" parent="1" source="AkOBkc0Qu3jlN49ZhF7H-150" target="AkOBkc0Qu3jlN49ZhF7H-6">
          <mxGeometry width="50" height="50" relative="1" as="geometry">
            <mxPoint x="1290" y="820" as="sourcePoint" />
            <mxPoint x="1340" y="770" as="targetPoint" />
          </mxGeometry>
        </mxCell>
        <mxCell id="AkOBkc0Qu3jlN49ZhF7H-158" value="N" style="text;html=1;align=center;verticalAlign=middle;whiteSpace=wrap;rounded=0;" vertex="1" parent="1">
          <mxGeometry x="1280" y="560" width="60" height="30" as="geometry" />
        </mxCell>
        <mxCell id="AkOBkc0Qu3jlN49ZhF7H-159" value="UserEnquires" style="shape=rhombus;perimeter=rhombusPerimeter;whiteSpace=wrap;html=1;align=center;" vertex="1" parent="1">
          <mxGeometry x="1060" y="300" width="120" height="60" as="geometry" />
        </mxCell>
        <mxCell id="AkOBkc0Qu3jlN49ZhF7H-36" value="EmailId" style="ellipse;whiteSpace=wrap;html=1;" vertex="1" parent="1">
          <mxGeometry x="870.0011111111111" y="-160.00384615384615" width="124.44444444444444" height="62.30769230769231" as="geometry" />
        </mxCell>
        <mxCell id="AkOBkc0Qu3jlN49ZhF7H-45" value="" style="endArrow=none;html=1;rounded=0;exitX=0.5;exitY=0;exitDx=0;exitDy=0;entryX=0.5;entryY=1;entryDx=0;entryDy=0;" edge="1" parent="1" source="AkOBkc0Qu3jlN49ZhF7H-4" target="AkOBkc0Qu3jlN49ZhF7H-36">
          <mxGeometry width="50" height="50" relative="1" as="geometry">
            <mxPoint x="702.5925925925926" y="155.3846153846154" as="sourcePoint" />
            <mxPoint x="1003.3333333333333" y="3.07692307692308" as="targetPoint" />
          </mxGeometry>
        </mxCell>
        <mxCell id="AkOBkc0Qu3jlN49ZhF7H-160" value="" style="endArrow=none;html=1;rounded=0;exitX=1;exitY=0.5;exitDx=0;exitDy=0;entryX=0.5;entryY=0;entryDx=0;entryDy=0;" edge="1" parent="1" source="AkOBkc0Qu3jlN49ZhF7H-4" target="AkOBkc0Qu3jlN49ZhF7H-159">
          <mxGeometry width="50" height="50" relative="1" as="geometry">
            <mxPoint x="1090" y="120" as="sourcePoint" />
            <mxPoint x="1140" y="70" as="targetPoint" />
            <Array as="points">
              <mxPoint x="1120" y="68" />
            </Array>
          </mxGeometry>
        </mxCell>
        <mxCell id="AkOBkc0Qu3jlN49ZhF7H-162" value="" style="endArrow=none;html=1;rounded=0;entryX=0.5;entryY=1;entryDx=0;entryDy=0;" edge="1" parent="1" target="AkOBkc0Qu3jlN49ZhF7H-159">
          <mxGeometry width="50" height="50" relative="1" as="geometry">
            <mxPoint x="1120" y="600" as="sourcePoint" />
            <mxPoint x="1140" y="370" as="targetPoint" />
          </mxGeometry>
        </mxCell>
        <mxCell id="AkOBkc0Qu3jlN49ZhF7H-156" value="1" style="text;html=1;align=center;verticalAlign=middle;whiteSpace=wrap;rounded=0;" vertex="1" parent="1">
          <mxGeometry x="1130" y="560" width="60" height="30" as="geometry" />
        </mxCell>
        <mxCell id="AkOBkc0Qu3jlN49ZhF7H-163" value="1" style="text;html=1;align=center;verticalAlign=middle;whiteSpace=wrap;rounded=0;" vertex="1" parent="1">
          <mxGeometry x="1105" y="370" width="60" height="30" as="geometry" />
        </mxCell>
        <mxCell id="AkOBkc0Qu3jlN49ZhF7H-164" value="N" style="text;html=1;align=center;verticalAlign=middle;resizable=0;points=[];autosize=1;strokeColor=none;fillColor=none;" vertex="1" parent="1">
          <mxGeometry x="1120" y="260" width="30" height="30" as="geometry" />
        </mxCell>
        <mxCell id="AkOBkc0Qu3jlN49ZhF7H-168" value="BookingPackage" style="shape=rhombus;perimeter=rhombusPerimeter;whiteSpace=wrap;html=1;align=center;" vertex="1" parent="1">
          <mxGeometry x="1690" y="980" width="160" height="80" as="geometry" />
        </mxCell>
        <mxCell id="AkOBkc0Qu3jlN49ZhF7H-170" value="" style="endArrow=none;html=1;rounded=0;exitX=1;exitY=0.5;exitDx=0;exitDy=0;entryX=0;entryY=0.5;entryDx=0;entryDy=0;" edge="1" parent="1" source="AkOBkc0Qu3jlN49ZhF7H-5" target="AkOBkc0Qu3jlN49ZhF7H-168">
          <mxGeometry width="50" height="50" relative="1" as="geometry">
            <mxPoint x="1750" y="1080" as="sourcePoint" />
            <mxPoint x="1800" y="1030" as="targetPoint" />
          </mxGeometry>
        </mxCell>
        <mxCell id="AkOBkc0Qu3jlN49ZhF7H-171" value="" style="endArrow=none;html=1;rounded=0;exitX=1;exitY=0.5;exitDx=0;exitDy=0;entryX=0;entryY=0.5;entryDx=0;entryDy=0;" edge="1" parent="1" source="AkOBkc0Qu3jlN49ZhF7H-168" target="AkOBkc0Qu3jlN49ZhF7H-2">
          <mxGeometry width="50" height="50" relative="1" as="geometry">
            <mxPoint x="1750" y="1080" as="sourcePoint" />
            <mxPoint x="2240" y="1070" as="targetPoint" />
          </mxGeometry>
        </mxCell>
        <mxCell id="AkOBkc0Qu3jlN49ZhF7H-173" value="N" style="text;html=1;align=center;verticalAlign=middle;whiteSpace=wrap;rounded=0;" vertex="1" parent="1">
          <mxGeometry x="1850" y="980" width="60" height="30" as="geometry" />
        </mxCell>
        <mxCell id="AkOBkc0Qu3jlN49ZhF7H-108" value="PackageFeatures&lt;span style=&quot;color: rgba(0, 0, 0, 0); font-family: monospace; font-size: 0px; text-align: start; text-wrap: nowrap;&quot;&gt;%3CmxGraphModel%3E%3Croot%3E%3CmxCell%20id%3D%220%22%2F%3E%3CmxCell%20id%3D%221%22%20parent%3D%220%22%2F%3E%3CmxCell%20id%3D%222%22%20value%3D%22PackageLocation%22%20style%3D%22ellipse%3BwhiteSpace%3Dwrap%3Bhtml%3D1%3Balign%3Dcenter%3B%22%20vertex%3D%221%22%20parent%3D%221%22%3E%3CmxGeometry%20x%3D%22190%22%20y%3D%221060%22%20width%3D%22100%22%20height%3D%2240%22%20as%3D%22geometry%22%2F%3E%3C%2FmxCell%3E%3C%2Froot%3E%3C%2FmxGraphModel%3E&lt;/span&gt;" style="ellipse;whiteSpace=wrap;html=1;align=center;" vertex="1" parent="1">
          <mxGeometry x="1890" y="760" width="150" height="60" as="geometry" />
        </mxCell>
        <mxCell id="AkOBkc0Qu3jlN49ZhF7H-109" value="PackageDetails" style="ellipse;whiteSpace=wrap;html=1;align=center;" vertex="1" parent="1">
          <mxGeometry x="1770" y="880" width="179.89" height="47.24" as="geometry" />
        </mxCell>
        <mxCell id="AkOBkc0Qu3jlN49ZhF7H-115" value="" style="endArrow=none;html=1;rounded=0;exitX=1;exitY=0.5;exitDx=0;exitDy=0;entryX=0;entryY=0.5;entryDx=0;entryDy=0;" edge="1" parent="1" source="AkOBkc0Qu3jlN49ZhF7H-109" target="AkOBkc0Qu3jlN49ZhF7H-2">
          <mxGeometry width="50" height="50" relative="1" as="geometry">
            <mxPoint x="2198.6811610925215" y="1154.1379310344828" as="sourcePoint" />
            <mxPoint x="2253.6261888670942" y="1071.3793103448274" as="targetPoint" />
          </mxGeometry>
        </mxCell>
        <mxCell id="AkOBkc0Qu3jlN49ZhF7H-107" value="PackagePrice" style="ellipse;whiteSpace=wrap;html=1;align=center;" vertex="1" parent="1">
          <mxGeometry x="2050" y="770" width="134.18" height="43.45" as="geometry" />
        </mxCell>
        <mxCell id="AkOBkc0Qu3jlN49ZhF7H-118" value="" style="endArrow=none;html=1;rounded=0;exitX=0.5;exitY=1;exitDx=0;exitDy=0;" edge="1" parent="1" source="AkOBkc0Qu3jlN49ZhF7H-107">
          <mxGeometry width="50" height="50" relative="1" as="geometry">
            <mxPoint x="2017.037072213889" y="1034.8293103448275" as="sourcePoint" />
            <mxPoint x="2220" y="970" as="targetPoint" />
          </mxGeometry>
        </mxCell>
        <mxCell id="AkOBkc0Qu3jlN49ZhF7H-106" value="PackageLocation" style="ellipse;whiteSpace=wrap;html=1;align=center;" vertex="1" parent="1">
          <mxGeometry x="2240" y="763.79" width="159.34" height="56.21" as="geometry" />
        </mxCell>
        <mxCell id="AkOBkc0Qu3jlN49ZhF7H-119" value="" style="endArrow=none;html=1;rounded=0;exitX=0.5;exitY=1;exitDx=0;exitDy=0;entryX=0.5;entryY=0;entryDx=0;entryDy=0;" edge="1" parent="1" source="AkOBkc0Qu3jlN49ZhF7H-106" target="AkOBkc0Qu3jlN49ZhF7H-2">
          <mxGeometry width="50" height="50" relative="1" as="geometry">
            <mxPoint x="2023.8460777688035" y="1117.9310344827586" as="sourcePoint" />
            <mxPoint x="2199.670166647436" y="1084.8275862068965" as="targetPoint" />
          </mxGeometry>
        </mxCell>
        <mxCell id="AkOBkc0Qu3jlN49ZhF7H-175" value="UserPackages" style="shape=rhombus;perimeter=rhombusPerimeter;whiteSpace=wrap;html=1;align=center;" vertex="1" parent="1">
          <mxGeometry x="725" y="1160" width="210" height="80" as="geometry" />
        </mxCell>
        <mxCell id="AkOBkc0Qu3jlN49ZhF7H-176" value="" style="endArrow=none;html=1;rounded=0;exitX=0.5;exitY=1;exitDx=0;exitDy=0;entryX=0.5;entryY=0;entryDx=0;entryDy=0;" edge="1" parent="1" source="AkOBkc0Qu3jlN49ZhF7H-7" target="AkOBkc0Qu3jlN49ZhF7H-175">
          <mxGeometry width="50" height="50" relative="1" as="geometry">
            <mxPoint x="1080" y="1000" as="sourcePoint" />
            <mxPoint x="1130" y="950" as="targetPoint" />
          </mxGeometry>
        </mxCell>
        <mxCell id="AkOBkc0Qu3jlN49ZhF7H-177" value="" style="endArrow=none;html=1;rounded=0;exitX=0.5;exitY=1;exitDx=0;exitDy=0;entryX=0;entryY=0.5;entryDx=0;entryDy=0;" edge="1" parent="1" source="AkOBkc0Qu3jlN49ZhF7H-175" target="AkOBkc0Qu3jlN49ZhF7H-2">
          <mxGeometry width="50" height="50" relative="1" as="geometry">
            <mxPoint x="1210" y="1120" as="sourcePoint" />
            <mxPoint x="1770" y="1410" as="targetPoint" />
            <Array as="points">
              <mxPoint x="830" y="1350" />
              <mxPoint x="1930" y="1350" />
            </Array>
          </mxGeometry>
        </mxCell>
        <mxCell id="AkOBkc0Qu3jlN49ZhF7H-178" value="M" style="text;html=1;align=center;verticalAlign=middle;whiteSpace=wrap;rounded=0;" vertex="1" parent="1">
          <mxGeometry x="830" y="1110" width="60" height="30" as="geometry" />
        </mxCell>
        <mxCell id="AkOBkc0Qu3jlN49ZhF7H-179" value="N" style="text;html=1;align=center;verticalAlign=middle;whiteSpace=wrap;rounded=0;" vertex="1" parent="1">
          <mxGeometry x="830" y="1250" width="60" height="30" as="geometry" />
        </mxCell>
        <mxCell id="AkOBkc0Qu3jlN49ZhF7H-183" value="has" style="shape=rhombus;perimeter=rhombusPerimeter;whiteSpace=wrap;html=1;align=center;" vertex="1" parent="1">
          <mxGeometry x="660" y="285" width="120" height="60" as="geometry" />
        </mxCell>
        <mxCell id="AkOBkc0Qu3jlN49ZhF7H-184" value="" style="endArrow=none;html=1;rounded=0;exitX=1;exitY=0.5;exitDx=0;exitDy=0;entryX=0.5;entryY=0;entryDx=0;entryDy=0;" edge="1" parent="1" source="AkOBkc0Qu3jlN49ZhF7H-183" target="AkOBkc0Qu3jlN49ZhF7H-7">
          <mxGeometry width="50" height="50" relative="1" as="geometry">
            <mxPoint x="720" y="340" as="sourcePoint" />
            <mxPoint x="770" y="290" as="targetPoint" />
            <Array as="points">
              <mxPoint x="820" y="315" />
            </Array>
          </mxGeometry>
        </mxCell>
        <mxCell id="AkOBkc0Qu3jlN49ZhF7H-185" value="" style="endArrow=none;html=1;rounded=0;exitX=1;exitY=0.5;exitDx=0;exitDy=0;entryX=0;entryY=0.5;entryDx=0;entryDy=0;" edge="1" parent="1" source="AkOBkc0Qu3jlN49ZhF7H-1" target="AkOBkc0Qu3jlN49ZhF7H-183">
          <mxGeometry width="50" height="50" relative="1" as="geometry">
            <mxPoint x="720" y="340" as="sourcePoint" />
            <mxPoint x="770" y="290" as="targetPoint" />
          </mxGeometry>
        </mxCell>
        <mxCell id="AkOBkc0Qu3jlN49ZhF7H-186" value="1" style="text;html=1;align=center;verticalAlign=middle;whiteSpace=wrap;rounded=0;" vertex="1" parent="1">
          <mxGeometry x="760" y="280" width="60" height="30" as="geometry" />
        </mxCell>
        <mxCell id="AkOBkc0Qu3jlN49ZhF7H-187" value="N" style="text;html=1;align=center;verticalAlign=middle;whiteSpace=wrap;rounded=0;" vertex="1" parent="1">
          <mxGeometry x="605" y="280" width="60" height="30" as="geometry" />
        </mxCell>
        <mxCell id="AkOBkc0Qu3jlN49ZhF7H-189" value="resolves" style="shape=rhombus;perimeter=rhombusPerimeter;whiteSpace=wrap;html=1;align=center;" vertex="1" parent="1">
          <mxGeometry x="1295" y="40" width="120" height="60" as="geometry" />
        </mxCell>
        <mxCell id="AkOBkc0Qu3jlN49ZhF7H-190" value="" style="endArrow=none;html=1;rounded=0;exitX=1;exitY=0.5;exitDx=0;exitDy=0;entryX=0;entryY=0.5;entryDx=0;entryDy=0;" edge="1" parent="1" source="AkOBkc0Qu3jlN49ZhF7H-4" target="AkOBkc0Qu3jlN49ZhF7H-189">
          <mxGeometry width="50" height="50" relative="1" as="geometry">
            <mxPoint x="1310" y="70" as="sourcePoint" />
            <mxPoint x="1360" y="20" as="targetPoint" />
          </mxGeometry>
        </mxCell>
        <mxCell id="AkOBkc0Qu3jlN49ZhF7H-9" value="UserName" style="ellipse;whiteSpace=wrap;html=1;" vertex="1" parent="1">
          <mxGeometry x="1760" y="45" width="110" height="50" as="geometry" />
        </mxCell>
        <mxCell id="AkOBkc0Qu3jlN49ZhF7H-12" style="edgeStyle=orthogonalEdgeStyle;rounded=0;orthogonalLoop=1;jettySize=auto;html=1;exitX=0.5;exitY=1;exitDx=0;exitDy=0;" edge="1" parent="1" source="AkOBkc0Qu3jlN49ZhF7H-9" target="AkOBkc0Qu3jlN49ZhF7H-9">
          <mxGeometry relative="1" as="geometry" />
        </mxCell>
        <mxCell id="AkOBkc0Qu3jlN49ZhF7H-16" value="" style="endArrow=none;html=1;rounded=0;exitX=0;exitY=0.5;exitDx=0;exitDy=0;entryX=1;entryY=0.5;entryDx=0;entryDy=0;" edge="1" parent="1" source="AkOBkc0Qu3jlN49ZhF7H-9" target="AkOBkc0Qu3jlN49ZhF7H-3">
          <mxGeometry width="50" height="50" relative="1" as="geometry">
            <mxPoint x="1975.5555555555557" y="140" as="sourcePoint" />
            <mxPoint x="1608.888888888889" y="70" as="targetPoint" />
          </mxGeometry>
        </mxCell>
        <mxCell id="AkOBkc0Qu3jlN49ZhF7H-191" value="" style="endArrow=none;html=1;rounded=0;exitX=1;exitY=0.5;exitDx=0;exitDy=0;entryX=0;entryY=0.5;entryDx=0;entryDy=0;" edge="1" parent="1" source="AkOBkc0Qu3jlN49ZhF7H-189" target="AkOBkc0Qu3jlN49ZhF7H-3">
          <mxGeometry width="50" height="50" relative="1" as="geometry">
            <mxPoint x="1610" y="70" as="sourcePoint" />
            <mxPoint x="1660" y="20" as="targetPoint" />
          </mxGeometry>
        </mxCell>
        <mxCell id="AkOBkc0Qu3jlN49ZhF7H-192" value="1" style="text;html=1;align=center;verticalAlign=middle;whiteSpace=wrap;rounded=0;" vertex="1" parent="1">
          <mxGeometry x="1420" y="27.3" width="60" height="30" as="geometry" />
        </mxCell>
        <mxCell id="AkOBkc0Qu3jlN49ZhF7H-193" value="N" style="text;html=1;align=center;verticalAlign=middle;whiteSpace=wrap;rounded=0;" vertex="1" parent="1">
          <mxGeometry x="1230" y="25" width="60" height="30" as="geometry" />
        </mxCell>
        <mxCell id="AkOBkc0Qu3jlN49ZhF7H-10" value="Password" style="ellipse;whiteSpace=wrap;html=1;" vertex="1" parent="1">
          <mxGeometry x="1629.9988888888888" y="-110" width="146.66666666666669" height="50" as="geometry" />
        </mxCell>
        <mxCell id="AkOBkc0Qu3jlN49ZhF7H-14" value="" style="endArrow=none;html=1;rounded=0;exitX=0.5;exitY=0;exitDx=0;exitDy=0;entryX=0.5;entryY=1;entryDx=0;entryDy=0;" edge="1" parent="1" source="AkOBkc0Qu3jlN49ZhF7H-3" target="AkOBkc0Qu3jlN49ZhF7H-10">
          <mxGeometry width="50" height="50" relative="1" as="geometry">
            <mxPoint x="1865.5555555555557" y="130" as="sourcePoint" />
            <mxPoint x="1926.6666666666667" y="80" as="targetPoint" />
          </mxGeometry>
        </mxCell>
        <mxCell id="AkOBkc0Qu3jlN49ZhF7H-11" value="updationDate" style="ellipse;whiteSpace=wrap;html=1;" vertex="1" parent="1">
          <mxGeometry x="1520" y="170.00142857142856" width="146.66666666666669" height="58.92857142857143" as="geometry" />
        </mxCell>
        <mxCell id="AkOBkc0Qu3jlN49ZhF7H-17" value="" style="endArrow=none;html=1;rounded=0;exitX=0.925;exitY=0.18;exitDx=0;exitDy=0;exitPerimeter=0;entryX=0.5;entryY=1;entryDx=0;entryDy=0;" edge="1" parent="1" source="AkOBkc0Qu3jlN49ZhF7H-11" target="AkOBkc0Qu3jlN49ZhF7H-3">
          <mxGeometry width="50" height="50" relative="1" as="geometry">
            <mxPoint x="1905.5555555555557" y="141.07142857142856" as="sourcePoint" />
            <mxPoint x="1966.6666666666667" y="82.14285714285714" as="targetPoint" />
          </mxGeometry>
        </mxCell>
      </root>
    </mxGraphModel>
  </diagram>
</mxfile>
